<?xml version="1.0" encoding="UTF-8" standalone="no"?>
<!DOCTYPE svg PUBLIC "-//W3C//DTD SVG 1.1//EN"
 "http://www.w3.org/Graphics/SVG/1.1/DTD/svg11.dtd">
<!-- Generated by graphviz version 2.43.0 (0)
 -->
<!-- Title: G Pages: 1 -->
<svg width="1216pt" height="915pt"
 viewBox="0.00 0.00 1215.50 914.90" xmlns="http://www.w3.org/2000/svg" xmlns:xlink="http://www.w3.org/1999/xlink">
<g id="graph0" class="graph" transform="scale(1 1) rotate(0) translate(4 910.9)">
<title>G</title><style>.edge>path:hover{stroke-width:8}</style>
<polygon fill="white" stroke="transparent" points="-4,4 -4,-910.9 1211.5,-910.9 1211.5,4 -4,4"/>
<g id="clust1" class="cluster">
<title>cluster_tsdm</title><style>.edge>path:hover{stroke-width:8}</style>
<polygon fill="none" stroke="black" points="77.5,-8 77.5,-646.9 946.5,-646.9 946.5,-8 77.5,-8"/>
<text text-anchor="middle" x="512" y="-631.7" font-family="Times,serif" font-size="14.00">tsdm</text>
</g>
<!-- tsdm -->
<g id="node1" class="node">
<title>tsdm</title><style>.edge>path:hover{stroke-width:8}</style>
<ellipse fill="#650395" stroke="black" cx="511.5" cy="-34" rx="27" ry="18"/>
<text text-anchor="middle" x="511.5" y="-31.5" font-family="Helvetica,sans-Serif" font-size="10.00" fill="#ffffff">tsdm</text>
</g>
<!-- tsdm_config -->
<g id="node2" class="node">
<title>tsdm_config</title><style>.edge>path:hover{stroke-width:8}</style>
<ellipse fill="#8a21bf" stroke="black" cx="345.5" cy="-492.92" rx="40.06" ry="18"/>
<text text-anchor="middle" x="345.5" y="-490.42" font-family="Helvetica,sans-Serif" font-size="10.00" fill="#ffffff">tsdm.config</text>
</g>
<!-- tsdm_config&#45;&gt;tsdm -->
<g id="edge28" class="edge">
<title>tsdm_config&#45;&gt;tsdm</title><style>.edge>path:hover{stroke-width:8}</style>
<path fill="none" stroke="black" d="M368.7,-478.12C376.78,-473.46 385.96,-468.33 394.5,-463.93 428.44,-446.45 446.19,-455.6 472.5,-427.93 508.65,-389.91 506.54,-369.9 516.5,-318.39 525.86,-269.97 517.5,-123.61 513.43,-62.39"/>
<polygon fill="#000000" stroke="black" points="516.91,-62.06 512.74,-52.32 509.93,-62.53 516.91,-62.06"/>
</g>
<!-- tsdm_datasets_dataset -->
<g id="node5" class="node">
<title>tsdm_datasets_dataset</title><style>.edge>path:hover{stroke-width:8}</style>
<ellipse fill="#9724d0" stroke="black" cx="467.5" cy="-289.4" rx="40.11" ry="28.98"/>
<text text-anchor="middle" x="467.5" y="-297.9" font-family="Helvetica,sans-Serif" font-size="10.00" fill="#ffffff">tsdm.</text>
<text text-anchor="middle" x="467.5" y="-286.9" font-family="Helvetica,sans-Serif" font-size="10.00" fill="#ffffff">datasets.</text>
<text text-anchor="middle" x="467.5" y="-275.9" font-family="Helvetica,sans-Serif" font-size="10.00" fill="#ffffff">dataset</text>
</g>
<!-- tsdm_config&#45;&gt;tsdm_datasets_dataset -->
<g id="edge29" class="edge">
<title>tsdm_config&#45;&gt;tsdm_datasets_dataset</title><style>.edge>path:hover{stroke-width:8}</style>
<path fill="none" stroke="black" d="M369.39,-478.19C377.36,-473.63 386.3,-468.54 394.5,-463.93 423.28,-447.74 441.91,-455.88 459.5,-427.93 478.05,-398.45 478.08,-358.01 474.66,-328.62"/>
<polygon fill="#000000" stroke="black" points="478.08,-327.77 473.28,-318.33 471.15,-328.71 478.08,-327.77"/>
</g>
<!-- tsdm_config_config_files -->
<g id="node3" class="node">
<title>tsdm_config_config_files</title><style>.edge>path:hover{stroke-width:8}</style>
<ellipse fill="#9947c2" stroke="black" cx="500.5" cy="-586.91" rx="46.84" ry="28.98"/>
<text text-anchor="middle" x="500.5" y="-595.41" font-family="Helvetica,sans-Serif" font-size="10.00" fill="#ffffff">tsdm.</text>
<text text-anchor="middle" x="500.5" y="-584.41" font-family="Helvetica,sans-Serif" font-size="10.00" fill="#ffffff">config.</text>
<text text-anchor="middle" x="500.5" y="-573.41" font-family="Helvetica,sans-Serif" font-size="10.00" fill="#ffffff">config_files</text>
</g>
<!-- tsdm_config_config_files&#45;&gt;tsdm_config -->
<g id="edge30" class="edge">
<title>tsdm_config_config_files&#45;&gt;tsdm_config</title><style>.edge>path:hover{stroke-width:8}</style>
<path fill="none" stroke="black" d="M467.25,-566.17C440.67,-550.4 403.65,-528.43 377.43,-512.87"/>
<polygon fill="#000000" stroke="black" points="379.03,-509.75 368.64,-507.66 375.45,-515.77 379.03,-509.75"/>
</g>
<!-- tsdm_datasets -->
<g id="node4" class="node">
<title>tsdm_datasets</title><style>.edge>path:hover{stroke-width:8}</style>
<ellipse fill="#812bac" stroke="black" cx="435.5" cy="-109.21" rx="46.51" ry="18"/>
<text text-anchor="middle" x="435.5" y="-106.71" font-family="Helvetica,sans-Serif" font-size="10.00" fill="#ffffff">tsdm.datasets</text>
</g>
<!-- tsdm_datasets&#45;&gt;tsdm -->
<g id="edge31" class="edge">
<title>tsdm_datasets&#45;&gt;tsdm</title><style>.edge>path:hover{stroke-width:8}</style>
<path fill="none" stroke="black" d="M451.99,-92.33C462.88,-81.84 477.28,-67.97 489.18,-56.5"/>
<polygon fill="#000000" stroke="black" points="491.81,-58.82 496.59,-49.37 486.96,-53.78 491.81,-58.82"/>
</g>
<!-- tsdm_datasets_dataset&#45;&gt;tsdm_datasets -->
<g id="edge32" class="edge">
<title>tsdm_datasets_dataset&#45;&gt;tsdm_datasets</title><style>.edge>path:hover{stroke-width:8}</style>
<path fill="none" stroke="black" d="M483.07,-262.31C496.02,-237 510.31,-197.92 496.5,-166.43 490.36,-152.42 478.81,-140.35 467.4,-131.04"/>
<polygon fill="#000000" stroke="black" points="469.27,-128.05 459.2,-124.75 465.01,-133.61 469.27,-128.05"/>
</g>
<!-- tsdm_datasets_electricity -->
<g id="node6" class="node">
<title>tsdm_datasets_electricity</title><style>.edge>path:hover{stroke-width:8}</style>
<ellipse fill="#893ab0" stroke="black" cx="213.5" cy="-195.42" rx="41.94" ry="28.98"/>
<text text-anchor="middle" x="213.5" y="-203.92" font-family="Helvetica,sans-Serif" font-size="10.00" fill="#ffffff">tsdm.</text>
<text text-anchor="middle" x="213.5" y="-192.92" font-family="Helvetica,sans-Serif" font-size="10.00" fill="#ffffff">datasets.</text>
<text text-anchor="middle" x="213.5" y="-181.92" font-family="Helvetica,sans-Serif" font-size="10.00" fill="#ffffff">electricity</text>
</g>
<!-- tsdm_datasets_dataset&#45;&gt;tsdm_datasets_electricity -->
<g id="edge33" class="edge">
<title>tsdm_datasets_dataset&#45;&gt;tsdm_datasets_electricity</title><style>.edge>path:hover{stroke-width:8}</style>
<path fill="none" stroke="black" d="M433.42,-273.61C422.38,-269.08 410.02,-264.28 398.5,-260.41 340.04,-240.78 321.72,-247.41 264.5,-224.41 260.86,-222.95 257.15,-221.28 253.48,-219.51"/>
<polygon fill="#000000" stroke="black" points="254.99,-216.35 244.48,-214.95 251.82,-222.6 254.99,-216.35"/>
</g>
<!-- tsdm_datasets_in_silico_data -->
<g id="node9" class="node">
<title>tsdm_datasets_in_silico_data</title><style>.edge>path:hover{stroke-width:8}</style>
<ellipse fill="#7d35a1" stroke="black" cx="433.5" cy="-195.42" rx="53.98" ry="28.98"/>
<text text-anchor="middle" x="433.5" y="-203.92" font-family="Helvetica,sans-Serif" font-size="10.00" fill="#ffffff">tsdm.</text>
<text text-anchor="middle" x="433.5" y="-192.92" font-family="Helvetica,sans-Serif" font-size="10.00" fill="#ffffff">datasets.</text>
<text text-anchor="middle" x="433.5" y="-181.92" font-family="Helvetica,sans-Serif" font-size="10.00" fill="#ffffff">in_silico_data</text>
</g>
<!-- tsdm_datasets_dataset&#45;&gt;tsdm_datasets_in_silico_data -->
<g id="edge34" class="edge">
<title>tsdm_datasets_dataset&#45;&gt;tsdm_datasets_in_silico_data</title><style>.edge>path:hover{stroke-width:8}</style>
<path fill="none" stroke="black" d="M457.48,-261.3C454.26,-252.57 450.62,-242.74 447.18,-233.42"/>
<polygon fill="#000000" stroke="black" points="450.43,-232.13 443.68,-223.96 443.87,-234.55 450.43,-232.13"/>
</g>
<!-- tsdm_datasets_electricity&#45;&gt;tsdm_datasets -->
<g id="edge35" class="edge">
<title>tsdm_datasets_electricity&#45;&gt;tsdm_datasets</title><style>.edge>path:hover{stroke-width:8}</style>
<path fill="none" stroke="black" d="M244.84,-175.94C251.23,-172.53 257.99,-169.19 264.5,-166.43 314.19,-145.33 329.37,-147.74 380.5,-130.43 384.79,-128.97 389.25,-127.42 393.69,-125.83"/>
<polygon fill="#000000" stroke="black" points="395.1,-129.04 403.32,-122.35 392.72,-122.46 395.1,-129.04"/>
</g>
<!-- tsdm_datasets_examples -->
<g id="node7" class="node">
<title>tsdm_datasets_examples</title><style>.edge>path:hover{stroke-width:8}</style>
<ellipse fill="#9947c2" stroke="black" cx="347.5" cy="-289.4" rx="41.94" ry="28.98"/>
<text text-anchor="middle" x="347.5" y="-297.9" font-family="Helvetica,sans-Serif" font-size="10.00" fill="#ffffff">tsdm.</text>
<text text-anchor="middle" x="347.5" y="-286.9" font-family="Helvetica,sans-Serif" font-size="10.00" fill="#ffffff">datasets.</text>
<text text-anchor="middle" x="347.5" y="-275.9" font-family="Helvetica,sans-Serif" font-size="10.00" fill="#ffffff">examples</text>
</g>
<!-- tsdm_datasets_examples&#45;&gt;tsdm_datasets_in_silico_data -->
<g id="edge36" class="edge">
<title>tsdm_datasets_examples&#45;&gt;tsdm_datasets_in_silico_data</title><style>.edge>path:hover{stroke-width:8}</style>
<path fill="none" stroke="black" d="M369.65,-264.71C379.77,-253.88 391.93,-240.88 402.91,-229.14"/>
<polygon fill="#000000" stroke="black" points="405.65,-231.33 409.92,-221.64 400.54,-226.55 405.65,-231.33"/>
</g>
<!-- tsdm_datasets_examples_in_silico -->
<g id="node8" class="node">
<title>tsdm_datasets_examples_in_silico</title><style>.edge>path:hover{stroke-width:8}</style>
<ellipse fill="#9947c2" stroke="black" cx="406.5" cy="-391.16" rx="43.68" ry="36.54"/>
<text text-anchor="middle" x="406.5" y="-405.16" font-family="Helvetica,sans-Serif" font-size="10.00" fill="#ffffff">tsdm.</text>
<text text-anchor="middle" x="406.5" y="-394.16" font-family="Helvetica,sans-Serif" font-size="10.00" fill="#ffffff">datasets.</text>
<text text-anchor="middle" x="406.5" y="-383.16" font-family="Helvetica,sans-Serif" font-size="10.00" fill="#ffffff">examples.</text>
<text text-anchor="middle" x="406.5" y="-372.16" font-family="Helvetica,sans-Serif" font-size="10.00" fill="#ffffff">in_silico</text>
</g>
<!-- tsdm_datasets_examples_in_silico&#45;&gt;tsdm_datasets_in_silico_data -->
<g id="edge37" class="edge">
<title>tsdm_datasets_examples_in_silico&#45;&gt;tsdm_datasets_in_silico_data</title><style>.edge>path:hover{stroke-width:8}</style>
<path fill="none" stroke="black" d="M408.49,-354.2C410.26,-328.06 413.38,-291.89 418.5,-260.41 419.9,-251.83 421.79,-242.69 423.76,-234.08"/>
<polygon fill="#000000" stroke="black" points="427.18,-234.82 426.09,-224.28 420.37,-233.21 427.18,-234.82"/>
</g>
<!-- tsdm_datasets_in_silico_data&#45;&gt;tsdm_datasets -->
<g id="edge38" class="edge">
<title>tsdm_datasets_in_silico_data&#45;&gt;tsdm_datasets</title><style>.edge>path:hover{stroke-width:8}</style>
<path fill="none" stroke="black" d="M434.17,-166.38C434.39,-157.09 434.63,-146.78 434.85,-137.55"/>
<polygon fill="#000000" stroke="black" points="438.35,-137.42 435.09,-127.34 431.36,-137.25 438.35,-137.42"/>
</g>
<!-- tsdm_encoders -->
<g id="node10" class="node">
<title>tsdm_encoders</title><style>.edge>path:hover{stroke-width:8}</style>
<ellipse fill="#8d2fbc" stroke="black" cx="218.5" cy="-109.21" rx="47.86" ry="18"/>
<text text-anchor="middle" x="218.5" y="-106.71" font-family="Helvetica,sans-Serif" font-size="10.00" fill="#ffffff">tsdm.encoders</text>
</g>
<!-- tsdm_encoders&#45;&gt;tsdm -->
<g id="edge39" class="edge">
<title>tsdm_encoders&#45;&gt;tsdm</title><style>.edge>path:hover{stroke-width:8}</style>
<path fill="none" stroke="black" d="M250.55,-95.86C258.33,-93.08 266.66,-90.28 274.5,-88 344.88,-67.52 428.97,-50.41 475.69,-41.54"/>
<polygon fill="#000000" stroke="black" points="476.45,-44.96 485.63,-39.67 475.15,-38.08 476.45,-44.96"/>
</g>
<!-- tsdm_encoders__encoders -->
<g id="node11" class="node">
<title>tsdm_encoders__encoders</title><style>.edge>path:hover{stroke-width:8}</style>
<ellipse fill="#893ab0" stroke="black" cx="317.5" cy="-195.42" rx="43.68" ry="28.98"/>
<text text-anchor="middle" x="317.5" y="-203.92" font-family="Helvetica,sans-Serif" font-size="10.00" fill="#ffffff">tsdm.</text>
<text text-anchor="middle" x="317.5" y="-192.92" font-family="Helvetica,sans-Serif" font-size="10.00" fill="#ffffff">encoders.</text>
<text text-anchor="middle" x="317.5" y="-181.92" font-family="Helvetica,sans-Serif" font-size="10.00" fill="#ffffff">_encoders</text>
</g>
<!-- tsdm_encoders__encoders&#45;&gt;tsdm_encoders -->
<g id="edge40" class="edge">
<title>tsdm_encoders__encoders&#45;&gt;tsdm_encoders</title><style>.edge>path:hover{stroke-width:8}</style>
<path fill="none" stroke="black" d="M291.23,-172.07C276.96,-159.94 259.36,-144.97 245.05,-132.79"/>
<polygon fill="#000000" stroke="black" points="246.93,-129.8 237.05,-125.99 242.4,-135.14 246.93,-129.8"/>
</g>
<!-- tsdm_generators -->
<g id="node12" class="node">
<title>tsdm_generators</title><style>.edge>path:hover{stroke-width:8}</style>
<ellipse fill="#9947c2" stroke="black" cx="584.5" cy="-109.21" rx="43.68" ry="21.43"/>
<text text-anchor="middle" x="584.5" y="-112.21" font-family="Helvetica,sans-Serif" font-size="10.00" fill="#ffffff">tsdm.</text>
<text text-anchor="middle" x="584.5" y="-101.21" font-family="Helvetica,sans-Serif" font-size="10.00" fill="#ffffff">generators</text>
</g>
<!-- tsdm_generators&#45;&gt;tsdm -->
<g id="edge41" class="edge">
<title>tsdm_generators&#45;&gt;tsdm</title><style>.edge>path:hover{stroke-width:8}</style>
<path fill="none" stroke="black" d="M566.08,-89.74C556.02,-79.65 543.51,-67.1 533,-56.56"/>
<polygon fill="#000000" stroke="black" points="535.31,-53.92 525.77,-49.31 530.35,-58.86 535.31,-53.92"/>
</g>
<!-- tsdm_losses -->
<g id="node13" class="node">
<title>tsdm_losses</title><style>.edge>path:hover{stroke-width:8}</style>
<ellipse fill="#8e16ca" stroke="black" cx="791.5" cy="-109.21" rx="41.41" ry="18"/>
<text text-anchor="middle" x="791.5" y="-106.71" font-family="Helvetica,sans-Serif" font-size="10.00" fill="#ffffff">tsdm.losses</text>
</g>
<!-- tsdm_losses&#45;&gt;tsdm -->
<g id="edge42" class="edge">
<title>tsdm_losses&#45;&gt;tsdm</title><style>.edge>path:hover{stroke-width:8}</style>
<path fill="none" stroke="black" d="M763.49,-95.99C756.39,-93.14 748.73,-90.28 741.5,-88 674.06,-66.74 593.04,-50.06 547.38,-41.45"/>
<polygon fill="#000000" stroke="black" points="547.85,-37.97 537.38,-39.58 546.57,-44.86 547.85,-37.97"/>
</g>
<!-- tsdm_losses__module -->
<g id="node14" class="node">
<title>tsdm_losses__module</title><style>.edge>path:hover{stroke-width:8}</style>
<ellipse fill="#7d35a1" stroke="black" cx="847.5" cy="-195.42" rx="37.45" ry="28.98"/>
<text text-anchor="middle" x="847.5" y="-203.92" font-family="Helvetica,sans-Serif" font-size="10.00" fill="#ffffff">tsdm.</text>
<text text-anchor="middle" x="847.5" y="-192.92" font-family="Helvetica,sans-Serif" font-size="10.00" fill="#ffffff">losses.</text>
<text text-anchor="middle" x="847.5" y="-181.92" font-family="Helvetica,sans-Serif" font-size="10.00" fill="#ffffff">_module</text>
</g>
<!-- tsdm_losses__module&#45;&gt;tsdm_losses -->
<g id="edge43" class="edge">
<title>tsdm_losses__module&#45;&gt;tsdm_losses</title><style>.edge>path:hover{stroke-width:8}</style>
<path fill="none" stroke="black" d="M830.7,-169.15C823.55,-158.41 815.24,-145.9 808.11,-135.19"/>
<polygon fill="#000000" stroke="black" points="810.91,-133.07 802.45,-126.68 805.08,-136.95 810.91,-133.07"/>
</g>
<!-- tsdm_losses_functional -->
<g id="node15" class="node">
<title>tsdm_losses_functional</title><style>.edge>path:hover{stroke-width:8}</style>
<ellipse fill="#8a21bf" stroke="black" cx="796.5" cy="-289.4" rx="41.94" ry="28.98"/>
<text text-anchor="middle" x="796.5" y="-297.9" font-family="Helvetica,sans-Serif" font-size="10.00" fill="#ffffff">tsdm.</text>
<text text-anchor="middle" x="796.5" y="-286.9" font-family="Helvetica,sans-Serif" font-size="10.00" fill="#ffffff">losses.</text>
<text text-anchor="middle" x="796.5" y="-275.9" font-family="Helvetica,sans-Serif" font-size="10.00" fill="#ffffff">functional</text>
</g>
<!-- tsdm_losses_functional&#45;&gt;tsdm_losses -->
<g id="edge44" class="edge">
<title>tsdm_losses_functional&#45;&gt;tsdm_losses</title><style>.edge>path:hover{stroke-width:8}</style>
<path fill="none" stroke="black" d="M795.71,-260.17C794.77,-226.66 793.21,-171.17 792.28,-137.9"/>
<polygon fill="#000000" stroke="black" points="795.77,-137.44 791.99,-127.54 788.77,-137.63 795.77,-137.44"/>
</g>
<!-- tsdm_losses_functional&#45;&gt;tsdm_losses__module -->
<g id="edge45" class="edge">
<title>tsdm_losses_functional&#45;&gt;tsdm_losses__module</title><style>.edge>path:hover{stroke-width:8}</style>
<path fill="none" stroke="black" d="M811.25,-261.8C816.52,-252.29 822.54,-241.43 828.14,-231.33"/>
<polygon fill="#000000" stroke="black" points="831.35,-232.77 833.13,-222.33 825.22,-229.38 831.35,-232.77"/>
</g>
<!-- tsdm_losses_functional__functional -->
<g id="node16" class="node">
<title>tsdm_losses_functional__functional</title><style>.edge>path:hover{stroke-width:8}</style>
<ellipse fill="#9540c0" stroke="black" cx="796.5" cy="-391.16" rx="45.01" ry="36.54"/>
<text text-anchor="middle" x="796.5" y="-405.16" font-family="Helvetica,sans-Serif" font-size="10.00" fill="#ffffff">tsdm.</text>
<text text-anchor="middle" x="796.5" y="-394.16" font-family="Helvetica,sans-Serif" font-size="10.00" fill="#ffffff">losses.</text>
<text text-anchor="middle" x="796.5" y="-383.16" font-family="Helvetica,sans-Serif" font-size="10.00" fill="#ffffff">functional.</text>
<text text-anchor="middle" x="796.5" y="-372.16" font-family="Helvetica,sans-Serif" font-size="10.00" fill="#ffffff">_functional</text>
</g>
<!-- tsdm_losses_functional__functional&#45;&gt;tsdm_losses_functional -->
<g id="edge46" class="edge">
<title>tsdm_losses_functional__functional&#45;&gt;tsdm_losses_functional</title><style>.edge>path:hover{stroke-width:8}</style>
<path fill="none" stroke="black" d="M796.5,-354.15C796.5,-345.9 796.5,-337.12 796.5,-328.78"/>
<polygon fill="#000000" stroke="black" points="800,-328.54 796.5,-318.54 793,-328.54 800,-328.54"/>
</g>
<!-- tsdm_models -->
<g id="node17" class="node">
<title>tsdm_models</title><style>.edge>path:hover{stroke-width:8}</style>
<ellipse fill="#872db4" stroke="black" cx="689.5" cy="-109.21" rx="42.94" ry="18"/>
<text text-anchor="middle" x="689.5" y="-106.71" font-family="Helvetica,sans-Serif" font-size="10.00" fill="#ffffff">tsdm.models</text>
</g>
<!-- tsdm_models&#45;&gt;tsdm -->
<g id="edge47" class="edge">
<title>tsdm_models&#45;&gt;tsdm</title><style>.edge>path:hover{stroke-width:8}</style>
<path fill="none" stroke="black" d="M659.71,-95.96C627.6,-82.75 576.67,-61.81 543.67,-48.23"/>
<polygon fill="#000000" stroke="black" points="544.62,-44.84 534.04,-44.27 541.96,-51.31 544.62,-44.84"/>
</g>
<!-- tsdm_models_model -->
<g id="node18" class="node">
<title>tsdm_models_model</title><style>.edge>path:hover{stroke-width:8}</style>
<ellipse fill="#9947c2" stroke="black" cx="720.5" cy="-195.42" rx="36.12" ry="28.98"/>
<text text-anchor="middle" x="720.5" y="-203.92" font-family="Helvetica,sans-Serif" font-size="10.00" fill="#ffffff">tsdm.</text>
<text text-anchor="middle" x="720.5" y="-192.92" font-family="Helvetica,sans-Serif" font-size="10.00" fill="#ffffff">models.</text>
<text text-anchor="middle" x="720.5" y="-181.92" font-family="Helvetica,sans-Serif" font-size="10.00" fill="#ffffff">model</text>
</g>
<!-- tsdm_models_model&#45;&gt;tsdm_models -->
<g id="edge48" class="edge">
<title>tsdm_models_model&#45;&gt;tsdm_models</title><style>.edge>path:hover{stroke-width:8}</style>
<path fill="none" stroke="black" d="M710.52,-167.31C706.95,-157.61 702.92,-146.68 699.36,-137"/>
<polygon fill="#000000" stroke="black" points="702.59,-135.64 695.85,-127.47 696.02,-138.06 702.59,-135.64"/>
</g>
<!-- tsdm_models_ode_rnn -->
<g id="node19" class="node">
<title>tsdm_models_ode_rnn</title><style>.edge>path:hover{stroke-width:8}</style>
<ellipse fill="#8338a8" stroke="black" cx="630.5" cy="-195.42" rx="36.12" ry="28.98"/>
<text text-anchor="middle" x="630.5" y="-203.92" font-family="Helvetica,sans-Serif" font-size="10.00" fill="#ffffff">tsdm.</text>
<text text-anchor="middle" x="630.5" y="-192.92" font-family="Helvetica,sans-Serif" font-size="10.00" fill="#ffffff">models.</text>
<text text-anchor="middle" x="630.5" y="-181.92" font-family="Helvetica,sans-Serif" font-size="10.00" fill="#ffffff">ode_rnn</text>
</g>
<!-- tsdm_models_ode_rnn&#45;&gt;tsdm_models -->
<g id="edge49" class="edge">
<title>tsdm_models_ode_rnn&#45;&gt;tsdm_models</title><style>.edge>path:hover{stroke-width:8}</style>
<path fill="none" stroke="black" d="M647.88,-169.61C655.55,-158.66 664.55,-145.83 672.21,-134.89"/>
<polygon fill="#000000" stroke="black" points="675.14,-136.8 678.01,-126.6 669.41,-132.79 675.14,-136.8"/>
</g>
<!-- tsdm_optimizers -->
<g id="node20" class="node">
<title>tsdm_optimizers</title><style>.edge>path:hover{stroke-width:8}</style>
<ellipse fill="#893ab0" stroke="black" cx="894.5" cy="-109.21" rx="43.68" ry="21.43"/>
<text text-anchor="middle" x="894.5" y="-112.21" font-family="Helvetica,sans-Serif" font-size="10.00" fill="#ffffff">tsdm.</text>
<text text-anchor="middle" x="894.5" y="-101.21" font-family="Helvetica,sans-Serif" font-size="10.00" fill="#ffffff">optimizers</text>
</g>
<!-- tsdm_optimizers&#45;&gt;tsdm -->
<g id="edge50" class="edge">
<title>tsdm_optimizers&#45;&gt;tsdm</title><style>.edge>path:hover{stroke-width:8}</style>
<path fill="none" stroke="black" d="M862.33,-94.74C855.54,-92.24 848.35,-89.84 841.5,-88 737.12,-60.03 609.97,-44.71 548.42,-38.43"/>
<polygon fill="#000000" stroke="black" points="548.71,-34.94 538.41,-37.43 548.01,-41.91 548.71,-34.94"/>
</g>
<!-- tsdm_plot -->
<g id="node21" class="node">
<title>tsdm_plot</title><style>.edge>path:hover{stroke-width:8}</style>
<ellipse fill="#872db4" stroke="black" cx="119.5" cy="-109.21" rx="33.61" ry="18"/>
<text text-anchor="middle" x="119.5" y="-106.71" font-family="Helvetica,sans-Serif" font-size="10.00" fill="#ffffff">tsdm.plot</text>
</g>
<!-- tsdm_plot&#45;&gt;tsdm -->
<g id="edge51" class="edge">
<title>tsdm_plot&#45;&gt;tsdm</title><style>.edge>path:hover{stroke-width:8}</style>
<path fill="none" stroke="black" d="M142.11,-95.82C148.25,-92.87 155.01,-90 161.5,-88 272.19,-53.83 409.64,-41.24 474.43,-36.98"/>
<polygon fill="#000000" stroke="black" points="474.79,-40.47 484.55,-36.35 474.35,-33.48 474.79,-40.47"/>
</g>
<!-- tsdm_plot_plotting -->
<g id="node22" class="node">
<title>tsdm_plot_plotting</title><style>.edge>path:hover{stroke-width:8}</style>
<ellipse fill="#6b2e8a" stroke="black" cx="119.5" cy="-195.42" rx="33.88" ry="28.98"/>
<text text-anchor="middle" x="119.5" y="-203.92" font-family="Helvetica,sans-Serif" font-size="10.00" fill="#ffffff">tsdm.</text>
<text text-anchor="middle" x="119.5" y="-192.92" font-family="Helvetica,sans-Serif" font-size="10.00" fill="#ffffff">plot.</text>
<text text-anchor="middle" x="119.5" y="-181.92" font-family="Helvetica,sans-Serif" font-size="10.00" fill="#ffffff">plotting</text>
</g>
<!-- tsdm_plot_plotting&#45;&gt;tsdm_plot -->
<g id="edge52" class="edge">
<title>tsdm_plot_plotting&#45;&gt;tsdm_plot</title><style>.edge>path:hover{stroke-width:8}</style>
<path fill="none" stroke="black" d="M119.5,-166.38C119.5,-157.09 119.5,-146.78 119.5,-137.55"/>
<polygon fill="#000000" stroke="black" points="123,-137.34 119.5,-127.34 116,-137.34 123,-137.34"/>
</g>
<!-- tsdm_trainers -->
<g id="node23" class="node">
<title>tsdm_trainers</title><style>.edge>path:hover{stroke-width:8}</style>
<ellipse fill="#9947c2" stroke="black" cx="327.5" cy="-109.21" rx="43.62" ry="18"/>
<text text-anchor="middle" x="327.5" y="-106.71" font-family="Helvetica,sans-Serif" font-size="10.00" fill="#ffffff">tsdm.trainers</text>
</g>
<!-- tsdm_trainers&#45;&gt;tsdm -->
<g id="edge53" class="edge">
<title>tsdm_trainers&#45;&gt;tsdm</title><style>.edge>path:hover{stroke-width:8}</style>
<path fill="none" stroke="black" d="M357.88,-96.12C391.42,-82.78 445.18,-61.39 479.39,-47.78"/>
<polygon fill="#000000" stroke="black" points="480.91,-50.94 488.91,-43.99 478.33,-44.43 480.91,-50.94"/>
</g>
<!-- tsdm_util -->
<g id="node24" class="node">
<title>tsdm_util</title><style>.edge>path:hover{stroke-width:8}</style>
<ellipse fill="#7e1eae" stroke="black" cx="591.5" cy="-391.16" rx="31.58" ry="18"/>
<text text-anchor="middle" x="591.5" y="-388.66" font-family="Helvetica,sans-Serif" font-size="10.00" fill="#ffffff">tsdm.util</text>
</g>
<!-- tsdm_util&#45;&gt;tsdm -->
<g id="edge54" class="edge">
<title>tsdm_util&#45;&gt;tsdm</title><style>.edge>path:hover{stroke-width:8}</style>
<path fill="none" stroke="black" d="M587.45,-373.17C577.6,-331.74 551.71,-222.18 531.5,-130.43 526.4,-107.27 520.89,-80.89 516.95,-61.74"/>
<polygon fill="#000000" stroke="black" points="520.37,-61.01 514.94,-51.92 513.52,-62.41 520.37,-61.01"/>
</g>
<!-- tsdm_util&#45;&gt;tsdm_models_ode_rnn -->
<g id="edge55" class="edge">
<title>tsdm_util&#45;&gt;tsdm_models_ode_rnn</title><style>.edge>path:hover{stroke-width:8}</style>
<path fill="none" stroke="black" d="M594.96,-372.97C601.2,-342 614.45,-276.16 622.89,-234.22"/>
<polygon fill="#000000" stroke="black" points="626.33,-234.86 624.87,-224.37 619.47,-233.48 626.33,-234.86"/>
</g>
<!-- tsdm_util__utilfuncs -->
<g id="node25" class="node">
<title>tsdm_util__utilfuncs</title><style>.edge>path:hover{stroke-width:8}</style>
<ellipse fill="#7d35a1" stroke="black" cx="687.5" cy="-492.92" rx="41.94" ry="28.98"/>
<text text-anchor="middle" x="687.5" y="-501.42" font-family="Helvetica,sans-Serif" font-size="10.00" fill="#ffffff">tsdm.</text>
<text text-anchor="middle" x="687.5" y="-490.42" font-family="Helvetica,sans-Serif" font-size="10.00" fill="#ffffff">util.</text>
<text text-anchor="middle" x="687.5" y="-479.42" font-family="Helvetica,sans-Serif" font-size="10.00" fill="#ffffff">_utilfuncs</text>
</g>
<!-- tsdm_util__utilfuncs&#45;&gt;tsdm_util -->
<g id="edge56" class="edge">
<title>tsdm_util__utilfuncs&#45;&gt;tsdm_util</title><style>.edge>path:hover{stroke-width:8}</style>
<path fill="none" stroke="black" d="M664.75,-468.28C649.12,-452.04 628.5,-430.61 613.12,-414.63"/>
<polygon fill="#000000" stroke="black" points="615.49,-412.04 606.03,-407.27 610.45,-416.9 615.49,-412.04"/>
</g>
<!-- tsdm_util_dataloaders -->
<g id="node26" class="node">
<title>tsdm_util_dataloaders</title><style>.edge>path:hover{stroke-width:8}</style>
<ellipse fill="#8338a8" stroke="black" cx="794.5" cy="-492.92" rx="47.25" ry="28.98"/>
<text text-anchor="middle" x="794.5" y="-501.42" font-family="Helvetica,sans-Serif" font-size="10.00" fill="#ffffff">tsdm.</text>
<text text-anchor="middle" x="794.5" y="-490.42" font-family="Helvetica,sans-Serif" font-size="10.00" fill="#ffffff">util.</text>
<text text-anchor="middle" x="794.5" y="-479.42" font-family="Helvetica,sans-Serif" font-size="10.00" fill="#ffffff">dataloaders</text>
</g>
<!-- tsdm_util_dataloaders&#45;&gt;tsdm_util -->
<g id="edge57" class="edge">
<title>tsdm_util_dataloaders&#45;&gt;tsdm_util</title><style>.edge>path:hover{stroke-width:8}</style>
<path fill="none" stroke="black" d="M758.38,-473.8C751.77,-470.51 744.93,-467.11 738.5,-463.93 699.21,-444.52 653.88,-422.44 624.06,-407.95"/>
<polygon fill="#000000" stroke="black" points="625.48,-404.75 614.96,-403.53 622.42,-411.05 625.48,-404.75"/>
</g>
<!-- tsdm_util_decorators -->
<g id="node27" class="node">
<title>tsdm_util_decorators</title><style>.edge>path:hover{stroke-width:8}</style>
<ellipse fill="#9947c2" stroke="black" cx="583.5" cy="-492.92" rx="43.68" ry="28.98"/>
<text text-anchor="middle" x="583.5" y="-501.42" font-family="Helvetica,sans-Serif" font-size="10.00" fill="#ffffff">tsdm.</text>
<text text-anchor="middle" x="583.5" y="-490.42" font-family="Helvetica,sans-Serif" font-size="10.00" fill="#ffffff">util.</text>
<text text-anchor="middle" x="583.5" y="-479.42" font-family="Helvetica,sans-Serif" font-size="10.00" fill="#ffffff">decorators</text>
</g>
<!-- tsdm_util_decorators&#45;&gt;tsdm_util -->
<g id="edge58" class="edge">
<title>tsdm_util_decorators&#45;&gt;tsdm_util</title><style>.edge>path:hover{stroke-width:8}</style>
<path fill="none" stroke="black" d="M585.75,-463.87C586.86,-450.04 588.19,-433.43 589.29,-419.68"/>
<polygon fill="#000000" stroke="black" points="592.81,-419.62 590.12,-409.37 585.83,-419.06 592.81,-419.62"/>
</g>
<!-- tsdm_util_regularity_tests -->
<g id="node28" class="node">
<title>tsdm_util_regularity_tests</title><style>.edge>path:hover{stroke-width:8}</style>
<ellipse fill="#8338a8" stroke="black" cx="462.5" cy="-492.92" rx="58.88" ry="28.98"/>
<text text-anchor="middle" x="462.5" y="-501.42" font-family="Helvetica,sans-Serif" font-size="10.00" fill="#ffffff">tsdm.</text>
<text text-anchor="middle" x="462.5" y="-490.42" font-family="Helvetica,sans-Serif" font-size="10.00" fill="#ffffff">util.</text>
<text text-anchor="middle" x="462.5" y="-479.42" font-family="Helvetica,sans-Serif" font-size="10.00" fill="#ffffff">regularity_tests</text>
</g>
<!-- tsdm_util_regularity_tests&#45;&gt;tsdm_util -->
<g id="edge59" class="edge">
<title>tsdm_util_regularity_tests&#45;&gt;tsdm_util</title><style>.edge>path:hover{stroke-width:8}</style>
<path fill="none" stroke="black" d="M493.4,-468.03C515.41,-451 544.67,-428.38 565.49,-412.28"/>
<polygon fill="#000000" stroke="black" points="567.8,-414.91 573.57,-406.03 563.52,-409.38 567.8,-414.91"/>
</g>
<!-- h5py -->
<g id="node29" class="node">
<title>h5py</title><style>.edge>path:hover{stroke-width:8}</style>
<polygon fill="#c04040" stroke="black" points="1065.5,-510.92 1062.5,-514.92 1041.5,-514.92 1038.5,-510.92 1011.5,-510.92 1011.5,-474.92 1065.5,-474.92 1065.5,-510.92"/>
<text text-anchor="middle" x="1038.5" y="-490.42" font-family="Helvetica,sans-Serif" font-size="10.00" fill="#ffffff">h5py</text>
</g>
<!-- h5py&#45;&gt;tsdm_datasets_in_silico_data -->
<g id="edge1" class="edge">
<title>h5py&#45;&gt;tsdm_datasets_in_silico_data</title><style>.edge>path:hover{stroke-width:8}</style>
<path fill="none" stroke="black" d="M1041.62,-474.75C1048.38,-431.38 1059.22,-316.92 997.5,-260.41 991.68,-255.09 977.08,-250.71 956.64,-247.08"/>
<polygon fill="#c04040" stroke="black" points="956.93,-243.59 946.5,-245.42 955.8,-250.49 956.93,-243.59"/>
</g>
<!-- matplotlib -->
<g id="node30" class="node">
<title>matplotlib</title><style>.edge>path:hover{stroke-width:8}</style>
<polygon fill="#d39517" stroke="black" points="59,-510.92 56,-514.92 35,-514.92 32,-510.92 0,-510.92 0,-474.92 59,-474.92 59,-510.92"/>
<text text-anchor="middle" x="29.5" y="-490.42" font-family="Helvetica,sans-Serif" font-size="10.00" fill="#000000">matplotlib</text>
</g>
<!-- matplotlib&#45;&gt;tsdm_plot -->
<g id="edge2" class="edge">
<title>matplotlib&#45;&gt;tsdm_plot</title><style>.edge>path:hover{stroke-width:8}</style>
<path fill="none" stroke="black" d="M28.34,-474.57C25.76,-425.42 23.26,-281.93 73.17,-173.52"/>
<polygon fill="#d39517" stroke="black" points="76.34,-174.99 77.5,-164.46 70.03,-171.97 76.34,-174.99"/>
</g>
<!-- matplotlib&#45;&gt;tsdm_plot_plotting -->
<g id="edge3" class="edge">
<title>matplotlib&#45;&gt;tsdm_plot_plotting</title><style>.edge>path:hover{stroke-width:8}</style>
<path fill="none" stroke="black" d="M30.23,-474.92C32.35,-437.06 40.43,-343.28 73.56,-261.42"/>
<polygon fill="#d39517" stroke="black" points="76.86,-262.59 77.5,-252.01 70.41,-259.88 76.86,-262.59"/>
</g>
<!-- numba -->
<g id="node31" class="node">
<title>numba</title><style>.edge>path:hover{stroke-width:8}</style>
<polygon fill="#93c431" stroke="black" points="355.5,-762.9 352.5,-766.9 331.5,-766.9 328.5,-762.9 301.5,-762.9 301.5,-726.9 355.5,-726.9 355.5,-762.9"/>
<text text-anchor="middle" x="328.5" y="-742.4" font-family="Helvetica,sans-Serif" font-size="10.00" fill="#000000">numba</text>
</g>
<!-- numba&#45;&gt;tsdm_encoders__encoders -->
<g id="edge4" class="edge">
<title>numba&#45;&gt;tsdm_encoders__encoders</title><style>.edge>path:hover{stroke-width:8}</style>
<path fill="none" stroke="black" d="M315.84,-726.57C309.13,-716.6 301.31,-703.56 296.5,-690.9 291.27,-677.11 287.44,-666.39 284.66,-656.7"/>
<polygon fill="#93c431" stroke="black" points="288.01,-655.7 282.12,-646.89 281.24,-657.45 288.01,-655.7"/>
</g>
<!-- numba&#45;&gt;tsdm_util_regularity_tests -->
<g id="edge5" class="edge">
<title>numba&#45;&gt;tsdm_util_regularity_tests</title><style>.edge>path:hover{stroke-width:8}</style>
<path fill="none" stroke="black" d="M355.58,-741.66C403.43,-736.14 502.38,-717.41 550.6,-655.13"/>
<polygon fill="#93c431" stroke="black" points="553.52,-657.06 556.5,-646.9 547.83,-652.99 553.52,-657.06"/>
</g>
<!-- numpy -->
<g id="node32" class="node">
<title>numpy</title><style>.edge>path:hover{stroke-width:8}</style>
<polygon fill="#06f906" stroke="black" points="462.5,-906.9 459.5,-910.9 438.5,-910.9 435.5,-906.9 408.5,-906.9 408.5,-870.9 462.5,-870.9 462.5,-906.9"/>
<text text-anchor="middle" x="435.5" y="-886.4" font-family="Helvetica,sans-Serif" font-size="10.00" fill="#000000">numpy</text>
</g>
<!-- numpy&#45;&gt;tsdm_datasets_electricity -->
<g id="edge9" class="edge">
<title>numpy&#45;&gt;tsdm_datasets_electricity</title><style>.edge>path:hover{stroke-width:8}</style>
<path fill="none" stroke="black" d="M408.2,-884.35C346.47,-874.64 201.5,-841.65 201.5,-745.9 201.5,-745.9 201.5,-745.9 201.5,-656.97"/>
<polygon fill="#06f906" stroke="black" points="205,-656.89 201.5,-646.89 198,-656.89 205,-656.89"/>
</g>
<!-- numpy&#45;&gt;tsdm_encoders__encoders -->
<g id="edge10" class="edge">
<title>numpy&#45;&gt;tsdm_encoders__encoders</title><style>.edge>path:hover{stroke-width:8}</style>
<path fill="none" stroke="black" d="M462.64,-887.91C543.05,-887.39 786.58,-881.76 981.5,-834.9 1086.46,-809.66 1207.5,-853.85 1207.5,-745.9 1207.5,-745.9 1207.5,-745.9 1207.5,-671.9 1207.5,-559 1065.8,-615.39 1002.5,-521.91 943.48,-434.75 1000.33,-356.15 952.82,-290.11"/>
<polygon fill="#06f906" stroke="black" points="955.45,-287.79 946.5,-282.12 949.96,-292.14 955.45,-287.79"/>
</g>
<!-- numpy&#45;&gt;tsdm_plot_plotting -->
<g id="edge11" class="edge">
<title>numpy&#45;&gt;tsdm_plot_plotting</title><style>.edge>path:hover{stroke-width:8}</style>
<path fill="none" stroke="black" d="M462.65,-885C557.66,-874.13 869.5,-831.91 869.5,-745.9 869.5,-745.9 869.5,-745.9 869.5,-656.97"/>
<polygon fill="#06f906" stroke="black" points="873,-656.89 869.5,-646.89 866,-656.89 873,-656.89"/>
</g>
<!-- numpy&#45;&gt;tsdm_util__utilfuncs -->
<g id="edge12" class="edge">
<title>numpy&#45;&gt;tsdm_util__utilfuncs</title><style>.edge>path:hover{stroke-width:8}</style>
<path fill="none" stroke="black" d="M462.8,-884.35C524.53,-874.64 669.5,-841.65 669.5,-745.9 669.5,-745.9 669.5,-745.9 669.5,-671.9 669.5,-667.04 669.57,-662.12 669.69,-657.15"/>
<polygon fill="#06f906" stroke="black" points="673.2,-657 670.03,-646.89 666.2,-656.77 673.2,-657"/>
</g>
<!-- numpy&#45;&gt;tsdm_util_regularity_tests -->
<g id="edge13" class="edge">
<title>numpy&#45;&gt;tsdm_util_regularity_tests</title><style>.edge>path:hover{stroke-width:8}</style>
<path fill="none" stroke="black" d="M462.53,-880.19C512.33,-864.16 613.5,-822.19 613.5,-745.9 613.5,-745.9 613.5,-745.9 613.5,-671.9 613.5,-666.69 613.48,-661.81 613.4,-657.2"/>
<polygon fill="#06f906" stroke="black" points="616.89,-656.8 613.13,-646.89 609.9,-656.98 616.89,-656.8"/>
</g>
<!-- numpy&#45;&gt;matplotlib -->
<g id="edge6" class="edge">
<title>numpy&#45;&gt;matplotlib</title><style>.edge>path:hover{stroke-width:8}</style>
<path fill="none" stroke="black" d="M408.47,-885.99C339.93,-880.76 161.2,-864.57 110.5,-834.9 66.83,-809.34 39.5,-796.5 39.5,-745.9 39.5,-745.9 39.5,-745.9 39.5,-671.9 39.5,-618.56 34.97,-556.37 32.01,-521.43"/>
<polygon fill="#06f906" stroke="black" points="35.46,-520.74 31.11,-511.09 28.49,-521.35 35.46,-520.74"/>
</g>
<!-- pandas -->
<g id="node33" class="node">
<title>pandas</title><style>.edge>path:hover{stroke-width:8}</style>
<polygon fill="#0ce99f" stroke="black" points="283.5,-762.9 280.5,-766.9 259.5,-766.9 256.5,-762.9 229.5,-762.9 229.5,-726.9 283.5,-726.9 283.5,-762.9"/>
<text text-anchor="middle" x="256.5" y="-742.4" font-family="Helvetica,sans-Serif" font-size="10.00" fill="#000000">pandas</text>
</g>
<!-- numpy&#45;&gt;pandas -->
<g id="edge7" class="edge">
<title>numpy&#45;&gt;pandas</title><style>.edge>path:hover{stroke-width:8}</style>
<path fill="none" stroke="black" d="M413.91,-870.77C382.06,-845.5 322.37,-798.15 286.35,-769.58"/>
<polygon fill="#06f906" stroke="black" points="288.18,-766.56 278.17,-763.09 283.83,-772.04 288.18,-766.56"/>
</g>
<!-- scipy -->
<g id="node34" class="node">
<title>scipy</title><style>.edge>path:hover{stroke-width:8}</style>
<polygon fill="#2497d0" stroke="black" points="173.5,-834.9 170.5,-838.9 149.5,-838.9 146.5,-834.9 119.5,-834.9 119.5,-798.9 173.5,-798.9 173.5,-834.9"/>
<text text-anchor="middle" x="146.5" y="-814.4" font-family="Helvetica,sans-Serif" font-size="10.00" fill="#ffffff">scipy</text>
</g>
<!-- numpy&#45;&gt;scipy -->
<g id="edge8" class="edge">
<title>numpy&#45;&gt;scipy</title><style>.edge>path:hover{stroke-width:8}</style>
<path fill="none" stroke="black" d="M408.3,-883.75C362.21,-876.37 266.11,-859.37 187.5,-834.9 186.07,-834.45 184.63,-833.98 183.18,-833.48"/>
<polygon fill="#06f906" stroke="black" points="184.18,-830.12 173.59,-829.94 181.76,-836.69 184.18,-830.12"/>
</g>
<!-- pandas&#45;&gt;tsdm_datasets_electricity -->
<g id="edge14" class="edge">
<title>pandas&#45;&gt;tsdm_datasets_electricity</title><style>.edge>path:hover{stroke-width:8}</style>
<path fill="none" stroke="black" d="M237.68,-726.71C221.73,-710.99 198.96,-685.68 182.86,-655.85"/>
<polygon fill="#0ce99f" stroke="black" points="185.95,-654.22 178.3,-646.89 179.71,-657.39 185.95,-654.22"/>
</g>
<!-- pandas&#45;&gt;tsdm_datasets_in_silico_data -->
<g id="edge15" class="edge">
<title>pandas&#45;&gt;tsdm_datasets_in_silico_data</title><style>.edge>path:hover{stroke-width:8}</style>
<path fill="none" stroke="black" d="M253.38,-726.65C250.65,-710.68 246.66,-685.18 243.65,-656.98"/>
<polygon fill="#0ce99f" stroke="black" points="247.12,-656.49 242.64,-646.9 240.16,-657.2 247.12,-656.49"/>
</g>
<!-- pandas&#45;&gt;tsdm_encoders__encoders -->
<g id="edge16" class="edge">
<title>pandas&#45;&gt;tsdm_encoders__encoders</title><style>.edge>path:hover{stroke-width:8}</style>
<path fill="none" stroke="black" d="M229.44,-729.71C213.44,-720.31 193.6,-706.8 179.5,-690.9 166.67,-676.42 155.88,-665.6 147.39,-655.01"/>
<polygon fill="#0ce99f" stroke="black" points="150.14,-652.83 141.37,-646.9 144.52,-657.01 150.14,-652.83"/>
</g>
<!-- pandas&#45;&gt;tsdm_util__utilfuncs -->
<g id="edge17" class="edge">
<title>pandas&#45;&gt;tsdm_util__utilfuncs</title><style>.edge>path:hover{stroke-width:8}</style>
<path fill="none" stroke="black" d="M283.5,-730.81C286.52,-729.44 289.56,-728.12 292.5,-726.9 336.13,-708.79 358.08,-723.25 392.5,-690.9 404.24,-679.86 410.24,-668.5 413.46,-657.01"/>
<polygon fill="#0ce99f" stroke="black" points="416.96,-657.41 415.64,-646.89 410.11,-655.93 416.96,-657.41"/>
</g>
<!-- pandas&#45;&gt;tsdm_util_regularity_tests -->
<g id="edge18" class="edge">
<title>pandas&#45;&gt;tsdm_util_regularity_tests</title><style>.edge>path:hover{stroke-width:8}</style>
<path fill="none" stroke="black" d="M283.55,-731.13C316.64,-715.52 368.31,-691.12 368.5,-690.9 379.2,-678.71 385.25,-667.55 388.86,-656.74"/>
<polygon fill="#0ce99f" stroke="black" points="392.29,-657.46 391.55,-646.89 385.53,-655.61 392.29,-657.46"/>
</g>
<!-- scipy&#45;&gt;tsdm_plot_plotting -->
<g id="edge20" class="edge">
<title>scipy&#45;&gt;tsdm_plot_plotting</title><style>.edge>path:hover{stroke-width:8}</style>
<path fill="none" stroke="black" d="M133.99,-798.49C116.67,-772.63 87.5,-721.95 87.5,-673.9 87.5,-673.9 87.5,-673.9 87.5,-657.22"/>
<polygon fill="#2497d0" stroke="black" points="91,-656.89 87.5,-646.89 84,-656.89 91,-656.89"/>
</g>
<!-- scipy&#45;&gt;numba -->
<g id="edge19" class="edge">
<title>scipy&#45;&gt;numba</title><style>.edge>path:hover{stroke-width:8}</style>
<path fill="none" stroke="black" d="M173.7,-806.87C201.39,-797.5 245.7,-782 292.17,-762.85"/>
<polygon fill="#2497d0" stroke="black" points="293.6,-766.05 301.49,-758.98 290.92,-759.59 293.6,-766.05"/>
</g>
<!-- torch -->
<g id="node35" class="node">
<title>torch</title><style>.edge>path:hover{stroke-width:8}</style>
<polygon fill="#0505e5" stroke="black" points="972.5,-834.9 969.5,-838.9 948.5,-838.9 945.5,-834.9 918.5,-834.9 918.5,-798.9 972.5,-798.9 972.5,-834.9"/>
<text text-anchor="middle" x="945.5" y="-814.4" font-family="Helvetica,sans-Serif" font-size="10.00" fill="#ffffff">torch</text>
</g>
<!-- torch&#45;&gt;tsdm_losses__module -->
<g id="edge21" class="edge">
<title>torch&#45;&gt;tsdm_losses__module</title><style>.edge>path:hover{stroke-width:8}</style>
<path fill="none" stroke="black" d="M972.57,-814.67C1008.53,-811.56 1071.66,-800.68 1107.5,-762.9 1135.69,-733.17 1131.5,-714.87 1131.5,-673.9 1131.5,-673.9 1131.5,-673.9 1131.5,-390.16 1131.5,-331.52 1147.74,-303.07 1107.5,-260.41 1086.46,-238.1 1018.04,-221.79 956.67,-211.22"/>
<polygon fill="#0505e5" stroke="black" points="956.94,-207.71 946.5,-209.51 955.78,-214.62 956.94,-207.71"/>
</g>
<!-- torch&#45;&gt;tsdm_losses_functional__functional -->
<g id="edge22" class="edge">
<title>torch&#45;&gt;tsdm_losses_functional__functional</title><style>.edge>path:hover{stroke-width:8}</style>
<path fill="none" stroke="black" d="M937.81,-798.8C926.71,-772.52 907.5,-720.34 907.5,-673.9 907.5,-673.9 907.5,-673.9 907.5,-657.22"/>
<polygon fill="#0505e5" stroke="black" points="911,-656.9 907.5,-646.9 904,-656.9 911,-656.9"/>
</g>
<!-- torch&#45;&gt;tsdm_models_ode_rnn -->
<g id="edge23" class="edge">
<title>torch&#45;&gt;tsdm_models_ode_rnn</title><style>.edge>path:hover{stroke-width:8}</style>
<path fill="none" stroke="black" d="M972.65,-804.71C1015.37,-785.08 1093.5,-740.13 1093.5,-673.9 1093.5,-673.9 1093.5,-673.9 1093.5,-390.16 1093.5,-325.66 1081.59,-297.04 1028.5,-260.41 1012.28,-249.22 986.78,-242.96 956.49,-239.48"/>
<polygon fill="#0505e5" stroke="black" points="956.8,-235.99 946.5,-238.44 956.08,-242.95 956.8,-235.99"/>
</g>
<!-- torch&#45;&gt;tsdm_optimizers -->
<g id="edge24" class="edge">
<title>torch&#45;&gt;tsdm_optimizers</title><style>.edge>path:hover{stroke-width:8}</style>
<path fill="none" stroke="black" d="M972.63,-815.24C1012.21,-812.88 1086.03,-802.97 1131.5,-762.9 1163.77,-734.46 1169.5,-716.91 1169.5,-673.9 1169.5,-673.9 1169.5,-673.9 1169.5,-288.4 1169.5,-187.59 1037.73,-140.96 956.61,-121.81"/>
<polygon fill="#0505e5" stroke="black" points="957.03,-118.32 946.5,-119.5 955.47,-125.14 957.03,-118.32"/>
</g>
<!-- torch&#45;&gt;tsdm_plot_plotting -->
<g id="edge25" class="edge">
<title>torch&#45;&gt;tsdm_plot_plotting</title><style>.edge>path:hover{stroke-width:8}</style>
<path fill="none" stroke="black" d="M945.5,-798.85C945.5,-772.19 945.5,-719.01 945.5,-673.9 945.5,-673.9 945.5,-673.9 945.5,-657.22"/>
<polygon fill="#0505e5" stroke="black" points="949,-656.89 945.5,-646.89 942,-656.89 949,-656.89"/>
</g>
<!-- torch&#45;&gt;tsdm_util__utilfuncs -->
<g id="edge26" class="edge">
<title>torch&#45;&gt;tsdm_util__utilfuncs</title><style>.edge>path:hover{stroke-width:8}</style>
<path fill="none" stroke="black" d="M918.34,-800.39C902.96,-790.81 883.96,-777.56 869.5,-762.9 837.94,-730.89 808.38,-692.73 782.65,-655.36"/>
<polygon fill="#0505e5" stroke="black" points="785.4,-653.18 776.87,-646.89 779.62,-657.13 785.4,-653.18"/>
</g>
<!-- torch&#45;&gt;tsdm_util_dataloaders -->
<g id="edge27" class="edge">
<title>torch&#45;&gt;tsdm_util_dataloaders</title><style>.edge>path:hover{stroke-width:8}</style>
<path fill="none" stroke="black" d="M924.84,-798.69C914.31,-789.05 901.98,-776.29 893.5,-762.9 872.93,-730.39 855.75,-692.99 841.8,-656.62"/>
<polygon fill="#0505e5" stroke="black" points="844.94,-655.02 838.14,-646.9 838.39,-657.49 844.94,-655.02"/>
</g>
<!-- yaml -->
<g id="node36" class="node">
<title>yaml</title><style>.edge>path:hover{stroke-width:8}</style>
<polygon fill="#b65395" stroke="black" points="359.5,-690.9 356.5,-694.9 335.5,-694.9 332.5,-690.9 305.5,-690.9 305.5,-654.9 359.5,-654.9 359.5,-690.9"/>
<text text-anchor="middle" x="332.5" y="-670.4" font-family="Helvetica,sans-Serif" font-size="10.00" fill="#ffffff">yaml</text>
</g>
<!-- yaml&#45;&gt;tsdm_config -->
<g id="edge60" class="edge">
<title>yaml&#45;&gt;tsdm_config</title><style>.edge>path:hover{stroke-width:8}</style>
<path fill="none" stroke="black" d="M333.75,-654.83C333.76,-654.68 333.77,-654.53 333.78,-654.37"/>
<polygon fill="#b65395" stroke="black" points="337.09,-657.12 334.33,-646.89 330.11,-656.61 337.09,-657.12"/>
</g>
</g>
</svg>
